<?xml version="1.0" encoding="UTF-8"?>
<svg id="Layer_1" data-name="Layer 1" xmlns="http://www.w3.org/2000/svg" version="1.1" viewBox="0 0 110 110">
  <defs>
    <style>
      .cls-1 {
        fill: #d3b400;
        stroke-width: 0px;
      }
    </style>
  </defs>
  <path class="cls-1" d="M94.6,96.5v-4.2c0-.6-.2-1.1-.6-1.5s-.9-.6-1.5-.6h-2.9c0-.4-.1-.8-.3-1.2l-1.4-2.1h0c-.4-.6-1-.9-1.7-.9h-2c0-1.3,0-2.6,0-3.9-.2-8.5-1.1-16.9-2.7-25.2h1.7c.6,0,1.1-.2,1.5-.6s.6-.9.6-1.5v-4.2c0-.6-.2-1.1-.6-1.5s-.9-.6-1.5-.6h-10.4c-1.1,0-2.1.9-2.1,2.1v4.2c0,.6.2,1.1.6,1.5s.9.6,1.5.6h1.7c-1.6,8.3-2.6,16.8-2.7,25.2,0,1.3,0,2.6,0,3.9h-10.4c0-1.3,0-2.6,0-3.9-.2-8.5-1.1-16.9-2.7-25.2h1.7,0c.6,0,1.1-.2,1.5-.6.4-.4.6-.9.6-1.5v-4.2c0-.6-.2-1.1-.6-1.5-.4-.4-.9-.6-1.5-.6h-10.4,0c-1.2,0-2.1.9-2.1,2.1v4.2c0,.6.2,1.1.6,1.5.4.4.9.6,1.5.6h1.7,0c-1.6,8.3-2.6,16.8-2.7,25.2,0,1.3,0,2.6,0,3.9h-10.4c0-1.3,0-2.6,0-3.9-.2-8.5-1.1-16.9-2.7-25.2h1.7c.6,0,1.1-.2,1.5-.6s.6-.9.6-1.5v-4.2c0-.6-.2-1.1-.6-1.5s-.9-.6-1.5-.6h-10.4c-1.2,0-2.1.9-2.1,2.1v4.2c0,.6.2,1.1.6,1.5s.9.6,1.5.6h1.7c-1.6,8.3-2.6,16.8-2.7,25.2,0,1.3,0,2.6,0,3.9h-2c-.7,0-1.3.3-1.7.9l-1.4,2.1h0c-.2.3-.4.7-.3,1.2h-2.9c-1.2,0-2.1.9-2.1,2.1v4.2c0,.6.2,1.1.6,1.5s.9.6,1.5.6h75c.6,0,1.1-.2,1.5-.6s.6-.9.6-1.5h0Z"/>
  <path class="cls-1" d="M94.8,27l-38.3-15.3c-1-.4-2.1-.4-3.1,0L15.2,27c-1,.4-1.6,1.5-1.2,2.6l3.1,9.2c.3.9,1.1,1.4,2,1.4h1.6v4.2h0c0,.6.2,1.1.6,1.5.4.4.9.6,1.5.6h64.6c.6,0,1.1-.2,1.5-.6.4-.4.6-.9.6-1.5v-4.2h1.6c.9,0,1.7-.6,2-1.4l3.1-9.2c.3-1-.2-2.2-1.2-2.6h0Z"/>
</svg>