<?xml version="1.0" encoding="UTF-8"?>
<svg id="Layer_2" data-name="Layer 2" xmlns="http://www.w3.org/2000/svg" viewBox="0 0 304.16 144.88">
  <defs>
    <style>
      .cls-1 {
        fill: #293769;
      }

      .cls-1, .cls-2 {
        stroke-width: 0px;
      }

      .cls-2 {
        fill: #a2a2a5;
      }
    </style>
  </defs>
  <g id="PRINT">
    <g>
      <g>
        <path class="cls-2" d="M113.34,88.08c0,2.09-1.45,3.58-3.51,3.57-1.98,0-3.65-1.6-3.65-3.51,0-1.98,1.59-3.58,3.58-3.61,1.91-.03,3.58,1.63,3.57,3.58v-.04Z"/>
        <path class="cls-2" d="M46.28,81.07c.03,1.84-1.59,3.54-3.47,3.61-1.91.07-3.65-1.63-3.65-3.54,0-1.81,1.7-3.54,3.54-3.54s3.54,1.67,3.57,3.51v-.04Z"/>
        <path class="cls-2" d="M113.12,21.15c0-1.95,1.63-3.61,3.58-3.61,1.84,0,3.5,1.7,3.5,3.58s-1.67,3.5-3.51,3.54c-1.81.03-3.5-1.63-3.54-3.51h-.04Z"/>
        <path class="cls-2" d="M104.67,8.86c0,1.95-1.56,3.5-3.47,3.5s-3.5-1.63-3.5-3.51,1.56-3.54,3.44-3.61c1.91-.03,3.54,1.63,3.54,3.61h0Z"/>
        <path class="cls-2" d="M83.14,3.54c0,2.02-1.45,3.47-3.47,3.47s-3.58-1.56-3.54-3.58C76.13,1.52,77.72,0,79.71,0s3.43,1.52,3.43,3.51v.04Z"/>
        <path class="cls-2" d="M122.09,76.22c-1.77,0-3.61-1.74-3.47-3.44.14-2.27,1.56-3.47,3.61-3.57,1.77-.07,3.43,1.7,3.4,3.51,0,1.88-1.67,3.5-3.54,3.5h0Z"/>
        <path class="cls-2" d="M104.65,48.63c-.11-1.06.28-1.88.78-2.62,1.06-1.52,2.98-1.66,4.32-.39,1.38,1.35,1.63,3.68.56,5.28-.78,1.13-2.05,1.73-3.15,1.45-1.24-.32-2.34-1.67-2.51-3.08v-.64s0,0,0,0Z"/>
        <path class="cls-2" d="M130.81,51.12c0,2.12-1.42,3.61-3.47,3.57-1.81,0-3.43-1.7-3.4-3.47,0-1.98,1.49-3.43,3.51-3.43,2.02,0,3.36,1.35,3.4,3.33h-.04Z"/>
        <path class="cls-2" d="M28.59,51.14c0-1.95,1.56-3.43,3.54-3.4,1.95,0,3.47,1.56,3.4,3.54-.04,1.95-1.63,3.47-3.54,3.43-1.95-.04-3.43-1.59-3.4-3.54v-.04Z"/>
        <path class="cls-2" d="M37.31,26.15c1.95.04,3.43,1.59,3.4,3.58-.07,1.91-1.7,3.47-3.58,3.4-1.91-.07-3.43-1.67-3.36-3.61.04-1.95,1.59-3.4,3.58-3.36h-.04Z"/>
        <path class="cls-2" d="M58.21,89.93c1.81.04,3.54,1.88,3.47,3.61-.07,1.81-1.91,3.54-3.65,3.43-1.81-.11-3.4-1.77-3.36-3.54,0-1.84,1.77-3.54,3.54-3.5h0Z"/>
        <path class="cls-2" d="M76.37,98.75c0-1.95,1.49-3.47,3.37-3.43,1.88,0,3.29,1.49,3.33,3.37,0,1.98-1.38,3.43-3.29,3.47-1.95,0-3.36-1.45-3.4-3.4h0Z"/>
        <path class="cls-2" d="M46.31,14.29c0-1.88,1.56-3.47,3.4-3.43,1.81,0,3.33,1.56,3.33,3.37s-1.49,3.47-3.33,3.5c-1.88,0-3.4-1.52-3.4-3.44Z"/>
        <path class="cls-2" d="M64.18,39.05c1.81,0,3.4,1.45,3.47,3.26.07,1.74-1.56,3.4-3.29,3.4s-3.29-1.42-3.33-3.19c-.07-1.84,1.38-3.43,3.19-3.47h-.04Z"/>
        <path class="cls-2" d="M62.03,31.36c0,1.84-1.49,3.33-3.33,3.33s-3.36-1.52-3.33-3.33c0-1.73,1.67-3.33,3.44-3.33s3.22,1.59,3.22,3.33h0Z"/>
        <path class="cls-2" d="M80.66,81.9c-1.81,0-3.29-1.52-3.26-3.29,0-1.77,1.52-3.29,3.29-3.29,1.66,0,3.33,1.63,3.33,3.29,0,1.84-1.49,3.33-3.37,3.29Z"/>
        <path class="cls-2" d="M95.98,42.14c1.88,0,3.29,1.45,3.26,3.33,0,1.77-1.49,3.22-3.26,3.26-1.7.03-3.36-1.63-3.33-3.4,0-1.7,1.59-3.22,3.33-3.22v.04Z"/>
        <path class="cls-2" d="M91.5,79.32c-1.81,0-3.29-1.42-3.29-3.19,0-1.77,1.59-3.36,3.33-3.36s3.26,1.59,3.26,3.33-1.49,3.22-3.29,3.22h0Z"/>
        <path class="cls-2" d="M57.37,62.45c0,1.81-1.45,3.22-3.26,3.26-1.7,0-3.26-1.56-3.29-3.26,0-1.73,1.59-3.36,3.37-3.33,1.73,0,3.22,1.56,3.19,3.33Z"/>
        <path class="cls-2" d="M51.43,48.5c1.84,0,3.4,1.52,3.33,3.29-.04,1.73-1.56,3.19-3.37,3.19s-3.26-1.52-3.26-3.26,1.49-3.22,3.29-3.22Z"/>
        <path class="cls-2" d="M74.86,65.72c0,1.81-1.42,3.29-3.19,3.33-1.73,0-3.26-1.49-3.26-3.26,0-1.81,1.45-3.29,3.22-3.33,1.77,0,3.22,1.49,3.22,3.26h0Z"/>
        <path class="cls-2" d="M59.93,55.58c0-1.81,1.45-3.22,3.26-3.19,1.81.04,3.22,1.49,3.19,3.29,0,1.84-1.45,3.19-3.29,3.15-1.88,0-3.19-1.35-3.19-3.26h.04Z"/>
        <path class="cls-2" d="M81.48,66.82c0-1.88,1.38-3.19,3.26-3.15,1.73,0,3.15,1.49,3.15,3.19s-1.45,3.22-3.26,3.22c-1.88,0-3.19-1.35-3.15-3.26h0Z"/>
        <path class="cls-2" d="M59.06,85.5c-1.91,0-3.26-1.28-3.26-3.19s1.42-3.26,3.22-3.26,3.22,1.49,3.22,3.29c0,1.81-1.35,3.12-3.19,3.11v.04Z"/>
        <path class="cls-2" d="M60.62,74.49c-1.81,0-3.22-1.35-3.26-3.08-.03-1.84,1.35-3.33,3.15-3.36,1.81-.03,3.29,1.38,3.29,3.19,0,1.91-1.28,3.26-3.19,3.26Z"/>
        <path class="cls-2" d="M91.51,58.32c0-1.88,1.35-3.15,3.29-3.15,1.84,0,3.15,1.35,3.15,3.15s-1.45,3.29-3.26,3.26c-1.81,0-3.22-1.45-3.19-3.29v.04Z"/>
        <path class="cls-2" d="M89.29,20.79c1.73,0,3.22,1.42,3.26,3.12,0,1.77-1.56,3.36-3.37,3.33-1.66-.04-3.15-1.56-3.19-3.26,0-1.73,1.45-3.19,3.29-3.19h0Z"/>
        <path class="cls-2" d="M100.46,72.67c-1.84,0-3.26-1.38-3.26-3.19s1.42-3.19,3.12-3.22c1.81-.03,3.26,1.35,3.29,3.15,0,1.91-1.24,3.22-3.15,3.26h0Z"/>
        <path class="cls-2" d="M102.8,60.24c0-1.91,1.28-3.22,3.15-3.22,1.84,0,3.26,1.38,3.26,3.19,0,1.7-1.45,3.19-3.15,3.22-1.81,0-3.26-1.38-3.26-3.19Z"/>
        <path class="cls-2" d="M90.81,35.38c0,1.73-1.45,3.15-3.22,3.15s-3.26-1.52-3.22-3.29c.04-1.73,1.52-3.15,3.26-3.11,1.84,0,3.22,1.42,3.19,3.26h0Z"/>
        <path class="cls-2" d="M101.86,29.72c0,1.84-1.31,3.19-3.12,3.19s-3.33-1.49-3.29-3.22c0-1.66,1.56-3.15,3.26-3.15s3.15,1.45,3.15,3.19h0Z"/>
        <path class="cls-2" d="M42.54,61.38c-1.77,0-3.15-1.38-3.15-3.15,0-1.81,1.52-3.29,3.26-3.26,1.59.04,3.12,1.56,3.15,3.15.03,1.74-1.45,3.26-3.26,3.26Z"/>
        <path class="cls-2" d="M78.39,19.26c1.84,0,3.15,1.31,3.19,3.12,0,1.73-1.42,3.22-3.08,3.26s-3.33-1.59-3.33-3.29,1.52-3.12,3.22-3.11v.04Z"/>
        <path class="cls-2" d="M53.06,43.96c-1.88,0-3.15-1.24-3.15-3.12,0-1.77,1.35-3.22,3.08-3.26,1.74-.03,3.29,1.52,3.29,3.26s-1.45,3.12-3.22,3.11Z"/>
        <path class="cls-2" d="M108.26,38.71c0,1.84-1.31,3.15-3.12,3.15s-3.19-1.38-3.22-3.15c-.03-1.59,1.56-3.22,3.22-3.22s3.15,1.49,3.15,3.22h-.04Z"/>
        <path class="cls-2" d="M74.42,37.03c-1.66,0-3.12-1.49-3.11-3.12s1.52-3.12,3.26-3.11,3.15,1.42,3.11,3.19c-.04,1.81-1.42,3.04-3.26,3.01v.04Z"/>
        <path class="cls-2" d="M73.05,76.87c0,1.88-1.28,3.19-3.08,3.22-1.73,0-3.08-1.31-3.11-3.05,0-1.73,1.38-3.26,3.08-3.26s3.08,1.45,3.11,3.12v-.04Z"/>
        <path class="cls-2" d="M67.87,21.88c1.66.04,3.08,1.52,3.08,3.19s-1.63,3.22-3.26,3.15c-1.63-.07-3.12-1.59-3.08-3.19.04-1.73,1.56-3.19,3.26-3.11v-.04Z"/>
        <path class="cls-2" d="M74.92,13.52c0,1.81-1.38,3.19-3.12,3.19-1.63,0-3.08-1.49-3.08-3.15s1.42-3.15,3.05-3.19c1.66-.07,3.19,1.45,3.19,3.15h-.04Z"/>
        <path class="cls-2" d="M90.47,87.36c0,1.7-1.38,3.12-3.05,3.15-1.66,0-3.08-1.38-3.08-3.12,0-1.63,1.42-3.12,3.05-3.15,1.63,0,3.08,1.45,3.08,3.12Z"/>
        <path class="cls-2" d="M116.62,39.6c1.66,0,3.12,1.52,3.04,3.15-.07,1.66-1.42,2.97-3.08,2.97s-3.19-1.49-3.11-3.08c.07-1.7,1.49-3.08,3.15-3.04h0Z"/>
        <path class="cls-2" d="M100.23,21.86c-1.66,0-3.01-1.28-3.04-2.94-.03-1.66,1.35-3.15,3.01-3.19,1.59,0,3.12,1.49,3.11,3.12,0,1.52-1.45,2.97-3.08,3.01h0Z"/>
        <path class="cls-2" d="M47.97,32.88c-1.63,0-2.9-1.31-2.9-2.94,0-1.52,1.49-3.01,2.94-2.94,1.56.07,2.97,1.52,2.94,3.01-.04,1.59-1.38,2.9-2.98,2.87h0Z"/>
        <path class="cls-2" d="M111.19,73.91c-1.45,0-2.9-1.38-2.94-2.87,0-1.45,1.35-2.9,2.83-2.94,1.52-.07,3.01,1.38,2.97,2.9,0,1.49-1.38,2.87-2.87,2.9Z"/>
        <path class="cls-2" d="M97.12,97.84c-1.45,0-2.51-1.03-2.51-2.44s1.1-2.58,2.41-2.62c1.42-.03,2.69,1.24,2.69,2.69s-1.1,2.41-2.59,2.41v-.04Z"/>
        <path class="cls-2" d="M126.47,33.62c0,1.49-1.06,2.62-2.55,2.62-1.31,0-2.55-1.21-2.58-2.52,0-1.42,1.17-2.58,2.59-2.58s2.48,1.06,2.51,2.48h.04Z"/>
        <path class="cls-2" d="M62.18,9.52c-1.38,0-2.66-1.24-2.62-2.59,0-1.35,1.21-2.51,2.55-2.55,1.38,0,2.66,1.21,2.62,2.59,0,1.35-1.21,2.51-2.55,2.55Z"/>
        <path class="cls-2" d="M38.11,68.74c0,1.31-1.21,2.55-2.52,2.58-1.31,0-2.58-1.21-2.58-2.52,0-1.42,1.06-2.55,2.44-2.58,1.49-.03,2.66,1.06,2.65,2.52Z"/>
        <path class="cls-2" d="M76.1,59.59c-1.42,0-2.55-1.1-2.51-2.48,0-1.38,1.17-2.44,2.62-2.41,1.31,0,2.44,1.17,2.44,2.44,0,1.38-1.13,2.48-2.55,2.48v-.04Z"/>
        <path class="cls-2" d="M83.23,46.28c-1.38,0-2.48-1.03-2.48-2.37s1.17-2.48,2.44-2.48,2.44,1.17,2.41,2.52c0,1.27-1.06,2.34-2.37,2.34h0Z"/>
        <path class="cls-2" d="M86.3,56.27c-1.31,0-2.41-.99-2.44-2.23-.03-1.31,1.06-2.44,2.41-2.44s2.37,1.03,2.41,2.34c.03,1.24-1.06,2.3-2.37,2.34h0Z"/>
        <path class="cls-2" d="M72.85,44.72c1.27,0,2.3,1.1,2.3,2.41,0,1.24-1.06,2.23-2.3,2.19-1.31,0-2.37-1.13-2.3-2.37.04-1.2,1.13-2.27,2.34-2.23h-.04Z"/>
        <path class="cls-2" d="M72.51,89.79c-1.13,0-2.27-1.2-2.27-2.37s1.17-2.19,2.41-2.19c1.17,0,2.16,1.1,2.16,2.27s-1.1,2.3-2.3,2.3h0Z"/>
        <path class="cls-2" d="M42.62,41.3c1.17,0,2.19,1.06,2.16,2.23,0,1.13-1.13,2.16-2.27,2.16-1.2,0-2.12-1.03-2.09-2.27,0-1.24.96-2.16,2.23-2.12h-.04Z"/>
        <path class="cls-2" d="M113.12,29.19c0,1.27-.89,2.19-2.16,2.19-1.2,0-2.19-.99-2.19-2.2,0-1.13,1.1-2.16,2.27-2.16s2.05.96,2.09,2.16h0Z"/>
        <path class="cls-2" d="M58.42,21.38c-1.27,0-2.12-.92-2.09-2.23,0-1.2.96-2.12,2.09-2.16,1.2,0,2.34,1.1,2.3,2.3,0,1.2-1.03,2.09-2.3,2.09Z"/>
        <path class="cls-2" d="M48.41,69.42c1.13,0,2.27,1.17,2.19,2.27-.04,1.1-1.2,2.19-2.3,2.16s-2.12-1.1-2.12-2.16,1.13-2.23,2.23-2.23v-.04Z"/>
        <path class="cls-2" d="M86.71,15.44c-1.17,0-2.09-.89-2.12-2.09,0-1.27.89-2.27,2.09-2.23,1.17,0,2.19,1.03,2.19,2.23,0,1.1-1.03,2.09-2.16,2.09h0Z"/>
        <path class="cls-2" d="M118.7,57.41c0,1.13-.96,2.12-2.09,2.16-1.13,0-2.16-.92-2.19-2.05-.03-1.06.99-2.16,2.09-2.19,1.1-.03,2.19,1.03,2.19,2.09Z"/>
        <path class="cls-2" d="M100.84,83.71c-1.24,0-2.12-.85-2.12-2.05s.92-2.05,2.13-2.05c1.06,0,2.05.96,2.09,1.98.03,1.06-.99,2.12-2.13,2.12h.04Z"/>
      </g>
      <g>
        <path class="cls-1" d="M142.51,50.47c0-3.38.55-6.49,1.74-9.51,1.19-3.02,2.84-5.58,5.03-7.86,2.2-2.29,4.85-4.02,7.96-5.39s6.59-2.01,10.52-2.01c3.93,0,9.69,1.1,13.35,3.39s6.4,5.22,8.23,8.88l-11.98,3.65c-1.01-1.74-2.38-3.11-4.11-4.03-1.74-.92-3.57-1.47-5.67-1.47s-3.38.36-4.94,1.1c-1.56.73-2.84,1.65-3.93,2.93-1.1,1.28-2.01,2.74-2.65,4.48s-.92,3.75-.92,5.85.36,4.12,1,5.85c.64,1.74,1.55,3.29,2.65,4.57s2.47,2.29,3.93,2.93c1.55.73,3.11,1.1,4.85,1.1s4.21-.55,6.04-1.64c1.83-1.1,3.11-2.47,3.84-4.02l11.98,3.66c-1.65,3.66-4.39,6.68-8.14,8.96s-8.33,3.47-13.63,3.47-7.41-.64-10.52-2.02c-3.11-1.37-5.76-3.11-7.96-5.4s-3.84-4.94-5.03-7.96c-1.19-3.02-1.83-6.13-1.83-9.42l.18-.09Z"/>
        <path class="cls-1" d="M198.68,7.69h12.26s-.02,50.86-.02,50.86c0,3.75,1.64,5.58,5.03,5.58,3.38,0,1.46-.09,2.29-.36.91-.27,1.74-.55,2.47-.82l1.64,9.79c-1.65.82-3.57,1.37-5.76,1.83-2.2.46-4.21.64-5.95.64-3.84,0-6.77-1.01-8.87-3.11-2.1-2.01-3.2-4.94-3.2-8.69l.03-55.7h.09Z"/>
        <path class="cls-1" d="M248.23,74.76c-3.2,0-6.04-.64-8.69-1.92-2.65-1.28-4.94-3.02-6.77-5.22-1.92-2.2-3.38-4.76-4.39-7.69-1-2.93-1.55-6.04-1.55-9.33,0-3.29.55-6.68,1.65-9.69,1.1-3.02,2.66-5.58,4.58-7.86,1.92-2.29,4.3-4.02,6.95-5.3,2.74-1.28,5.67-1.92,8.96-1.92,3.29,0,7.04.83,9.88,2.47,2.83,1.65,5.12,3.94,6.86,6.68v-8.41s10.71,0,10.71,0l-.02,45.64c0,3.57-.64,6.68-1.93,9.51-1.28,2.83-3.11,5.21-5.49,7.13-2.38,1.92-5.22,3.47-8.42,4.48s-6.77,1.55-10.61,1.55-9.7-.83-13.26-2.57-6.58-4.21-9.14-7.32l6.68-6.49c1.83,2.29,4.11,4.03,6.86,5.31s5.76,1.92,8.87,1.92c3.11,0,3.66-.27,5.49-.82,1.74-.55,3.29-1.28,4.57-2.38s2.38-2.47,3.11-4.21c.73-1.74,1.1-3.75,1.1-6.04v-6.04c-1.55,2.74-3.84,4.85-6.68,6.31-2.84,1.46-5.95,2.19-9.24,2.19h-.09ZM252.44,64.97c1.37,0,2.65-.18,3.84-.64s2.29-1.01,3.29-1.74,1.92-1.55,2.65-2.56c.82-1.01,1.37-2.01,1.83-3.11v-11.43c-1.09-2.84-2.83-5.03-5.11-6.77-2.29-1.74-4.76-2.56-7.32-2.56s-3.57.46-5.12,1.19c-1.56.82-2.84,1.92-3.93,3.29s-1.92,2.93-2.47,4.66c-.55,1.74-.92,3.57-.92,5.49s.36,3.75,1,5.49c.64,1.74,1.55,3.2,2.83,4.48,1.19,1.28,2.56,2.29,4.21,3.02s3.38,1.1,5.21,1.1v.09Z"/>
      </g>
      <g>
        <path class="cls-1" d="M.04,127.08c0-1.35.25-2.62.71-3.79.46-1.2,1.1-2.23,1.95-3.12s1.84-1.59,3.01-2.09,2.44-.78,3.86-.78,3.36.43,4.71,1.24,2.34,1.91,3.04,3.29l-2.41.78c-.53-.96-1.27-1.74-2.23-2.27-.96-.53-2.02-.82-3.19-.82s-1.88.21-2.73.57c-.85.39-1.56.92-2.2,1.59-.64.67-1.1,1.45-1.45,2.41-.35.92-.53,1.95-.53,3.04s.18,2.09.53,3.05.85,1.77,1.49,2.48c.64.71,1.38,1.24,2.19,1.63.85.39,1.73.6,2.69.6s1.2-.07,1.81-.25,1.13-.42,1.66-.71c.5-.32.96-.64,1.31-1.03s.64-.81.78-1.24l2.41.74c-.28.67-.67,1.31-1.17,1.88-.5.57-1.1,1.06-1.81,1.49s-1.45.74-2.3.99-1.7.35-2.62.35c-1.38,0-2.66-.25-3.82-.78s-2.19-1.24-3.04-2.16-1.52-1.95-1.98-3.15C.25,129.84,0,128.57,0,127.22l.04-.14Z"/>
        <path class="cls-1" d="M30.84,119.84c-1.66.03-3.15.49-4.39,1.38s-2.13,2.09-2.62,3.61v11.83s-2.48,0-2.48,0v-19.01s2.35,0,2.35,0v4.57c.67-1.35,1.52-2.44,2.58-3.33s2.23-1.34,3.47-1.34h.64c.18,0,.35,0,.46.04v2.27s0,0,0,0Z"/>
        <path class="cls-1" d="M42.49,137.05c-1.38,0-2.66-.25-3.82-.78-1.17-.53-2.19-1.24-3.04-2.16s-1.52-1.95-1.98-3.15c-.46-1.2-.71-2.48-.71-3.82s.25-2.58.71-3.79,1.13-2.23,1.98-3.12c.85-.88,1.84-1.59,3.01-2.12s2.44-.78,3.82-.78,2.66.25,3.82.78,2.16,1.24,2.97,2.13c.81.89,1.49,1.95,1.95,3.12s.71,2.41.71,3.72,0,.39,0,.57c0,.21,0,.32-.07.39h-16.25c.07,1.02.32,1.98.71,2.83s.92,1.63,1.52,2.23c.64.64,1.34,1.13,2.16,1.49.81.35,1.7.53,2.62.53s1.24-.07,1.88-.25c.6-.18,1.17-.39,1.66-.71.5-.28.96-.64,1.38-1.06.39-.42.71-.88.92-1.42l2.16.57c-.28.71-.71,1.35-1.24,1.91s-1.17,1.06-1.88,1.49-1.49.74-2.34.99c-.85.25-1.74.35-2.62.35l-.04.07ZM49.5,126.15c-.07-1.03-.32-1.95-.71-2.8s-.92-1.56-1.52-2.16c-.64-.6-1.35-1.1-2.16-1.42s-1.7-.5-2.62-.5-1.81.18-2.62.49c-.81.35-1.56.81-2.16,1.42-.64.6-1.13,1.34-1.49,2.19-.39.85-.6,1.77-.67,2.76h14.02s-.07,0-.07,0Z"/>
        <path class="cls-1" d="M63.48,137.06c-1.31,0-2.51-.28-3.65-.82-1.13-.53-2.09-1.28-2.9-2.16-.81-.89-1.45-1.95-1.91-3.12s-.67-2.41-.67-3.72.21-2.62.67-3.82c.43-1.2,1.03-2.27,1.81-3.15s1.66-1.63,2.73-2.12c1.06-.53,2.23-.78,3.47-.78s3.04.43,4.28,1.28,2.23,1.84,2.97,3.05v-11.61s2.48,0,2.48,0v23.44c-.01.67.27,1.03.87,1.03v2.2c-.43.07-.74.11-.99.11-.6,0-1.1-.18-1.49-.53s-.57-.78-.57-1.27v-2.02c-.78,1.24-1.81,2.23-3.08,2.97s-2.62,1.1-4,1.1l-.04-.04ZM63.98,134.87c.64,0,1.31-.11,1.98-.35.71-.25,1.35-.57,1.95-.99.6-.42,1.1-.92,1.56-1.49.43-.57.71-1.2.82-1.84v-5.88c-.24-.67-.6-1.27-1.06-1.84s-1.03-1.06-1.59-1.52-1.24-.78-1.91-1.03c-.67-.25-1.35-.35-1.98-.35-1.03,0-1.95.21-2.8.67s-1.56,1.03-2.13,1.73-1.03,1.52-1.38,2.48c-.32.92-.5,1.88-.5,2.83s.18,1.98.53,2.9.85,1.74,1.49,2.44c.64.71,1.38,1.24,2.23,1.67s1.81.64,2.8.64v-.07Z"/>
        <rect class="cls-1" x="78.32" y="117.66" width="2.48" height="19.01"/>
        <path class="cls-1" d="M95.35,135.8c-.14.07-.35.18-.64.28s-.6.25-.96.35-.78.25-1.24.32c-.46.11-.96.14-1.45.14s-1.06-.07-1.52-.21c-.5-.14-.92-.35-1.27-.67s-.67-.67-.88-1.13c-.21-.46-.32-.99-.32-1.59v-13.63s-2.61,0-2.61,0v-1.98s2.62,0,2.62,0v-6.41s2.48,0,2.48,0v6.41s4.39,0,4.39,0v1.98s-4.39,0-4.39,0v12.92c.03.71.28,1.24.74,1.56.42.32.96.5,1.56.5s1.31-.11,1.88-.35c.53-.25.89-.39,1.03-.5l.67,2.02h-.07Z"/>
        <path class="cls-1" d="M106.08,137.08c-1.38,0-2.66-.25-3.82-.78-1.17-.53-2.16-1.24-3.01-2.13s-1.49-1.95-1.95-3.15-.71-2.44-.71-3.75.25-2.62.71-3.79c.46-1.2,1.13-2.23,1.98-3.15.85-.88,1.84-1.63,3.01-2.16,1.17-.53,2.41-.81,3.79-.81s2.62.28,3.79.82,2.16,1.24,3.01,2.16c.85.89,1.49,1.95,1.98,3.15.46,1.2.71,2.44.71,3.79s-.25,2.58-.71,3.75-1.13,2.23-1.98,3.15c-.85.88-1.84,1.63-3.01,2.12s-2.41.78-3.79.78ZM99.18,127.27c0,1.06.18,2.05.53,2.97s.85,1.7,1.45,2.41,1.34,1.24,2.19,1.63,1.73.57,2.69.57,1.84-.21,2.69-.6c.85-.39,1.56-.96,2.2-1.63.64-.71,1.13-1.49,1.49-2.44.35-.92.53-1.91.53-3.01s-.18-2.05-.53-2.97-.85-1.74-1.49-2.44-1.38-1.24-2.19-1.63-1.7-.6-2.66-.6-1.84.21-2.69.6-1.56.96-2.2,1.66-1.1,1.52-1.49,2.48c-.35.92-.53,1.95-.53,3.01h0Z"/>
        <path class="cls-1" d="M129.07,119.88c-1.66.03-3.15.49-4.39,1.38s-2.13,2.09-2.62,3.61v11.83s-2.48,0-2.48,0v-19.01s2.35,0,2.35,0v4.57c.67-1.35,1.52-2.44,2.58-3.33s2.23-1.34,3.47-1.34h.64c.18,0,.35,0,.46.04v2.27s0,0,0,0Z"/>
        <path class="cls-1" d="M141.07,110.08h2.48s-.01,22.34-.01,22.34c0,.71.18,1.27.57,1.66s.92.6,1.63.6.57-.04.96-.11c.35-.07.71-.18,1.03-.28l.42,2.02c-.46.21-1.03.35-1.7.46-.67.11-1.24.18-1.74.18-1.13,0-2.05-.32-2.69-.96-.67-.64-.99-1.56-.99-2.73v-23.19s.05,0,.05,0Z"/>
        <path class="cls-1" d="M155.61,137.1c-.99,0-1.88-.14-2.66-.46-.81-.32-1.49-.71-2.05-1.28-.57-.53-1.03-1.17-1.34-1.88-.32-.71-.46-1.45-.46-2.23s.18-1.66.57-2.41c.39-.71.92-1.35,1.63-1.84.71-.5,1.56-.92,2.55-1.2s2.09-.42,3.26-.42,1.91.07,2.9.25,1.88.43,2.66.74v-1.7c0-1.66-.49-3.01-1.45-4-.96-.99-2.27-1.49-3.89-1.49s-2.05.21-3.05.6c-1.03.39-2.05.96-3.08,1.66l-.88-1.63c1.24-.81,2.44-1.45,3.61-1.87,1.17-.42,2.37-.64,3.65-.64,2.3,0,4.14.67,5.52,2.02,1.34,1.35,2.05,3.19,2.05,5.56v8.57c0,.67.28,1.03.88,1.03v2.2c-.21,0-.39.04-.53.07h-.42c-.5,0-.92-.14-1.35-.43-.39-.28-.64-.74-.67-1.31l-.07-1.49c-.81,1.13-1.91,1.98-3.26,2.62s-2.73.92-4.11.92v.04ZM156.25,135.19c1.1,0,2.2-.25,3.26-.71,1.1-.46,1.95-1.13,2.59-1.95.18-.21.32-.46.43-.71s.18-.5.18-.71v-3.12c-.81-.32-1.7-.57-2.58-.74s-1.77-.25-2.62-.25c-1.77,0-3.22.35-4.32,1.06-1.1.71-1.66,1.7-1.67,2.97s.11,1.03.28,1.49c.21.5.5.92.88,1.31s.88.71,1.49.96c.57.25,1.27.35,2.09.36v.04Z"/>
        <path class="cls-1" d="M194.01,117.72h2.41s-8.15,19.01-8.15,19.01h-2.09s-4.03-9.7-4.03-9.7l-4.04,9.7h-2.09s-8.14-19.02-8.14-19.02h2.37s6.93,16.47,6.93,16.47l3.62-8.67-3.25-7.76h2.12s2.48,6.2,2.48,6.2l2.45-6.2h2.12s-3.23,7.75-3.23,7.75l3.61,8.68,6.91-16.46h0Z"/>
        <path class="cls-1" d="M215.67,137.02c-1.31,0-2.51-.28-3.61-.82-1.1-.53-2.02-1.28-2.8-2.16-.78-.89-1.42-1.95-1.84-3.12s-.67-2.37-.67-3.61.21-2.58.64-3.79c.43-1.2,1.03-2.27,1.81-3.15.78-.88,1.7-1.63,2.8-2.16,1.1-.53,2.27-.81,3.61-.81s3.04.43,4.25,1.24,2.23,1.84,3.08,3.08v-3.97s2.23,0,2.23,0v19.08c0,1.31-.26,2.48-.75,3.47-.5,1.03-1.17,1.84-2.02,2.55-.85.67-1.84,1.2-2.97,1.52-1.13.35-2.34.49-3.61.49-2.16,0-3.93-.39-5.24-1.17-1.35-.78-2.41-1.84-3.26-3.15l1.52-1.2c.74,1.2,1.73,2.13,3.01,2.69,1.24.57,2.58.85,3.97.85s1.81-.14,2.66-.39,1.56-.64,2.2-1.13c.64-.5,1.1-1.13,1.49-1.91.35-.78.53-1.66.53-2.69v-3.75c-.74,1.2-1.77,2.19-3.01,2.87-1.24.71-2.59,1.06-3.97,1.06l-.04.07ZM216.38,134.93c.74,0,1.45-.14,2.16-.39.71-.28,1.35-.64,1.91-1.06.57-.46,1.06-.96,1.45-1.52.39-.57.64-1.13.78-1.7v-5.88c-.28-.67-.63-1.31-1.09-1.91-.46-.57-.99-1.1-1.59-1.49-.6-.43-1.2-.74-1.88-.99-.67-.25-1.35-.35-2.02-.35-1.06,0-2.02.21-2.83.67s-1.52,1.03-2.13,1.77-1.03,1.56-1.35,2.48c-.32.92-.46,1.88-.46,2.8s.18,1.98.53,2.9.85,1.74,1.49,2.44,1.38,1.24,2.23,1.63c.85.39,1.81.6,2.8.6h0Z"/>
        <path class="cls-1" d="M239.96,119.93c-1.66.03-3.15.49-4.39,1.38s-2.13,2.09-2.62,3.61v11.83s-2.48,0-2.48,0v-19.01s2.35,0,2.35,0v4.57c.67-1.35,1.52-2.44,2.58-3.33s2.23-1.34,3.47-1.34h.64c.18,0,.35,0,.46.04v2.27s0,0,0,0Z"/>
        <path class="cls-1" d="M250.61,137.14c-1.38,0-2.66-.25-3.82-.78s-2.16-1.24-3.01-2.13-1.49-1.95-1.95-3.15-.71-2.44-.71-3.75.25-2.62.71-3.79c.46-1.2,1.13-2.23,1.98-3.15.85-.88,1.84-1.63,3.01-2.16s2.41-.81,3.79-.81,2.62.28,3.79.82,2.16,1.24,3.01,2.16c.85.89,1.49,1.95,1.98,3.15.46,1.2.71,2.44.71,3.79s-.25,2.58-.71,3.75-1.13,2.23-1.98,3.15c-.85.88-1.84,1.63-3.01,2.12s-2.41.78-3.79.78ZM243.71,127.33c0,1.06.18,2.05.53,2.97s.85,1.7,1.45,2.41,1.34,1.24,2.19,1.63,1.73.57,2.69.57,1.84-.21,2.69-.6c.85-.39,1.56-.96,2.2-1.63.64-.71,1.13-1.49,1.49-2.44.35-.92.53-1.91.53-3.01s-.18-2.05-.53-2.97-.85-1.74-1.49-2.44-1.38-1.24-2.19-1.63c-.81-.39-1.7-.6-2.66-.6s-1.84.21-2.69.6-1.56.96-2.2,1.66-1.1,1.52-1.49,2.48c-.35.92-.53,1.95-.53,3.01h0Z"/>
        <path class="cls-1" d="M269.98,137.15c-1.98,0-3.51-.67-4.53-2.06-1.03-1.38-1.52-3.44-1.52-6.16v-11.19s2.48,0,2.48,0v10.73c0,4.32,1.48,6.44,4.42,6.45s1.45-.11,2.16-.35,1.35-.6,1.95-1.06,1.13-1.03,1.59-1.63c.46-.64.85-1.35,1.13-2.16v-11.97s2.48,0,2.48,0v15.79c0,.67.31,1.03.91,1.03v2.2c-.5.07-.82.11-1.03.11-.57,0-1.03-.18-1.45-.5s-.6-.78-.6-1.27v-2.62c-.85,1.49-1.98,2.62-3.4,3.43-1.42.81-2.97,1.24-4.64,1.24h.04Z"/>
        <path class="cls-1" d="M295.55,137.16c-1.59,0-3.04-.43-4.28-1.24s-2.23-1.84-3.01-3.08v11.72s-2.48,0-2.48,0v-26.8s2.24,0,2.24,0v3.68c.78-1.2,1.81-2.16,3.04-2.9s2.59-1.1,4.04-1.1c1.45,0,2.51.28,3.65.82,1.1.53,2.05,1.28,2.87,2.2.81.92,1.42,1.98,1.88,3.15.46,1.2.67,2.41.67,3.68s-.21,2.62-.64,3.79c-.43,1.2-.99,2.23-1.77,3.15-.78.88-1.66,1.63-2.73,2.12s-2.23.78-3.47.78v.04ZM294.88,134.97c1.03,0,1.95-.21,2.76-.67.81-.42,1.52-1.03,2.13-1.73s1.06-1.52,1.38-2.44.46-1.84.46-2.83-.18-1.98-.53-2.9-.85-1.74-1.49-2.44c-.64-.71-1.38-1.28-2.23-1.67-.85-.43-1.81-.64-2.8-.64s-1.27.14-1.98.39c-.67.25-1.31.6-1.95,1.03-.6.42-1.13.92-1.56,1.49-.43.57-.67,1.17-.78,1.81v5.84c.28.67.67,1.31,1.09,1.91.46.6.96,1.1,1.52,1.52.57.43,1.2.74,1.88.99.67.25,1.35.35,2.05.36h.04Z"/>
      </g>
      <path class="cls-2" d="M79.58,114.72c-1.24,0-2.12-.85-2.12-2.05s.92-2.05,2.13-2.05c1.06,0,2.05.96,2.09,1.98.03,1.06-.99,2.12-2.13,2.12h.04Z"/>
    </g>
  </g>
</svg>