<?xml version="1.0" encoding="UTF-8"?>
<svg id="Layer_1" data-name="Layer 1" xmlns="http://www.w3.org/2000/svg" version="1.1" viewBox="0 0 1159.4 509.5">
  <defs>
    <style>
      .cls-1 {
        fill: #a4a5a8;
      }

      .cls-1, .cls-2 {
        stroke-width: 0px;
      }

      .cls-2 {
        fill: #1b346b;
      }
    </style>
  </defs>
  <g>
    <g>
      <path class="cls-1" d="M220.4,412.8c0-9.9,0-19.8,0-29.7,0-1-.1-2,.1-2.9.4-1.6,1.5-2.4,3.2-2.4,1.7,0,2.8.8,3.3,2.3.2.8.1,1.7.1,2.5,0,20,0,40,0,60,0,.4,0,.7,0,1.1,0,2.3-.9,3.8-3.3,3.8-2.4,0-3.4-1.4-3.4-3.7,0-4.1,0-8.2,0-12.3,0-6.3,0-12.5,0-18.8Z"/>
      <path class="cls-1" d="M318.4,296.1c0,5.9-4.1,10.1-9.9,10.1-5.6,0-10.3-4.5-10.3-9.9,0-5.6,4.5-10.1,10.1-10.2,5.4-.1,10.1,4.6,10.1,10.1Z"/>
      <path class="cls-1" d="M129,276.4c.1,5.2-4.5,10-9.8,10.2-5.4.2-10.3-4.6-10.3-10,0-5.1,4.8-10,10-10,5.1,0,10,4.7,10.1,9.9Z"/>
      <path class="cls-1" d="M317.7,107.1c0-5.5,4.6-10.2,10.1-10.2,5.2,0,9.9,4.8,9.9,10.1,0,5.2-4.7,9.9-9.9,10-5.1.1-9.9-4.6-10-9.9Z"/>
      <path class="cls-1" d="M293.8,72.4c0,5.5-4.4,9.9-9.8,9.9-5.2,0-9.9-4.6-9.9-9.9,0-5.4,4.4-10,9.7-10.2,5.4-.1,10,4.6,10,10.2Z"/>
      <path class="cls-1" d="M233,57.4c0,5.7-4.1,9.8-9.8,9.8-5.8,0-10.1-4.4-10-10.1,0-5.4,4.5-9.7,10.1-9.7,5.5,0,9.7,4.3,9.7,9.9Z"/>
      <path class="cls-1" d="M343.1,262.6c-5,0-10.2-4.9-9.8-9.7.4-6.4,4.4-9.8,10.2-10.1,5-.2,9.7,4.8,9.6,9.9,0,5.3-4.7,9.9-10,9.9Z"/>
      <path class="cls-1" d="M293.8,184.7c-.3-3,.8-5.3,2.2-7.4,3-4.3,8.4-4.7,12.2-1.1,3.9,3.8,4.6,10.4,1.6,14.9-2.2,3.2-5.8,4.9-8.9,4.1-3.5-.9-6.6-4.7-7.1-8.7,0-.7,0-1.4,0-1.8Z"/>
      <path class="cls-1" d="M367.7,191.7c0,6-4,10.2-9.8,10.1-5.1,0-9.7-4.8-9.6-9.8,0-5.6,4.2-9.7,9.9-9.7,5.7,0,9.5,3.8,9.6,9.4Z"/>
      <path class="cls-1" d="M79,191.9c0-5.5,4.4-9.7,10-9.6,5.5,0,9.8,4.4,9.6,10-.1,5.5-4.6,9.8-10,9.7-5.5-.1-9.7-4.5-9.6-10Z"/>
      <path class="cls-1" d="M103.6,121.3c5.5.1,9.7,4.5,9.6,10.1-.2,5.4-4.8,9.8-10.1,9.6-5.4-.2-9.7-4.7-9.5-10.2.1-5.5,4.5-9.6,10.1-9.5Z"/>
      <path class="cls-1" d="M162.7,301.4c5.1.1,10,5.3,9.8,10.2-.2,5.1-5.4,10-10.3,9.7-5.1-.3-9.6-5-9.5-10,0-5.2,5-10,10-9.9Z"/>
      <path class="cls-1" d="M214,326.3c0-5.5,4.2-9.8,9.5-9.7,5.3,0,9.3,4.2,9.4,9.5,0,5.6-3.9,9.7-9.3,9.8-5.5,0-9.5-4.1-9.6-9.6Z"/>
      <path class="cls-1" d="M129,87.8c0-5.3,4.4-9.8,9.6-9.7,5.1,0,9.4,4.4,9.4,9.5,0,5.3-4.2,9.8-9.4,9.9-5.3,0-9.6-4.3-9.6-9.7Z"/>
      <path class="cls-1" d="M179.5,157.7c5.1,0,9.6,4.1,9.8,9.2.2,4.9-4.4,9.6-9.3,9.6-5,0-9.3-4-9.4-9-.2-5.2,3.9-9.7,9-9.8Z"/>
      <path class="cls-1" d="M173.4,136c0,5.2-4.2,9.4-9.4,9.4-5.2,0-9.5-4.3-9.4-9.4,0-4.9,4.7-9.4,9.7-9.4,4.8,0,9.1,4.5,9.1,9.4Z"/>
      <path class="cls-1" d="M226.1,278.7c-5.1,0-9.3-4.3-9.2-9.3,0-5,4.3-9.3,9.3-9.3,4.7,0,9.4,4.6,9.4,9.3,0,5.2-4.2,9.4-9.5,9.3Z"/>
      <path class="cls-1" d="M269.3,166.4c5.3,0,9.3,4.1,9.2,9.4,0,5-4.2,9.1-9.2,9.2-4.8.1-9.5-4.6-9.4-9.6,0-4.8,4.5-9.1,9.4-9.1Z"/>
      <path class="cls-1" d="M256.7,271.4c-5.1,0-9.3-4-9.3-9,0-5,4.5-9.5,9.4-9.5,4.8,0,9.2,4.5,9.2,9.4,0,5-4.2,9.1-9.3,9.1Z"/>
      <path class="cls-1" d="M160.3,223.8c0,5.1-4.1,9.1-9.2,9.2-4.8,0-9.2-4.4-9.3-9.2,0-4.9,4.5-9.5,9.5-9.4,4.9,0,9.1,4.4,9,9.4Z"/>
      <path class="cls-1" d="M143.5,184.4c5.2,0,9.6,4.3,9.4,9.3-.1,4.9-4.4,9-9.5,9-5,0-9.2-4.3-9.2-9.2,0-5,4.2-9.1,9.3-9.1Z"/>
      <path class="cls-1" d="M209.7,233c0,5.1-4,9.3-9,9.4-4.9,0-9.2-4.2-9.2-9.2,0-5.1,4.1-9.3,9.1-9.4,5,0,9.1,4.2,9.1,9.2Z"/>
      <path class="cls-1" d="M167.5,204.4c0-5.1,4.1-9.1,9.2-9,5.1.1,9.1,4.2,9,9.3,0,5.2-4.1,9-9.3,8.9-5.3,0-9-3.8-9-9.2Z"/>
      <path class="cls-1" d="M228.4,236.1c0-5.3,3.9-9,9.2-8.9,4.9,0,8.9,4.2,8.9,9,0,5-4.1,9.1-9.2,9.1-5.3,0-9-3.8-8.9-9.2Z"/>
      <path class="cls-1" d="M165.1,288.9c-5.4,0-9.2-3.6-9.2-9,0-5.2,4-9.2,9.1-9.2,5,0,9.1,4.2,9.1,9.3,0,5.1-3.8,8.8-9,8.8Z"/>
      <path class="cls-1" d="M169.5,257.8c-5.1,0-9.1-3.8-9.2-8.7-.1-5.2,3.8-9.4,8.9-9.5,5.1-.1,9.3,3.9,9.3,9,0,5.4-3.6,9.2-9,9.2Z"/>
      <path class="cls-1" d="M256.7,212.1c0-5.3,3.8-8.9,9.3-8.9,5.2,0,8.9,3.8,8.9,8.9,0,5.1-4.1,9.3-9.2,9.2-5.1,0-9.1-4.1-9-9.3Z"/>
      <path class="cls-1" d="M250.4,106.1c4.9,0,9.1,4,9.2,8.8,0,5-4.4,9.5-9.5,9.4-4.7-.1-8.9-4.4-9-9.2,0-4.9,4.1-9,9.3-9Z"/>
      <path class="cls-1" d="M282,252.6c-5.2,0-9.2-3.9-9.2-9,0-4.9,4-9,8.8-9.1,5.1-.1,9.2,3.8,9.3,8.9,0,5.4-3.5,9.1-8.9,9.2Z"/>
      <path class="cls-1" d="M288.6,217.5c0-5.4,3.6-9.1,8.9-9.1,5.2,0,9.2,3.9,9.2,9,0,4.8-4.1,9-8.9,9.1-5.1,0-9.2-3.9-9.2-9Z"/>
      <path class="cls-1" d="M254.7,147.3c0,4.9-4.1,8.9-9.1,8.9-5,0-9.2-4.3-9.1-9.3.1-4.9,4.3-8.9,9.2-8.8,5.2,0,9.1,4,9,9.2Z"/>
      <path class="cls-1" d="M285.9,131.3c0,5.2-3.7,9-8.8,9-5.1,0-9.4-4.2-9.3-9.1,0-4.7,4.4-8.9,9.2-8.9,4.8,0,8.9,4.1,8.9,9Z"/>
      <path class="cls-1" d="M118.4,220.8c-5,0-8.9-3.9-8.9-8.9,0-5.1,4.3-9.3,9.2-9.2,4.5.1,8.8,4.4,8.9,8.9.1,4.9-4.1,9.2-9.2,9.2Z"/>
      <path class="cls-1" d="M219.6,101.8c5.2,0,8.9,3.7,9,8.8,0,4.9-4,9.1-8.7,9.2-4.7.1-9.4-4.5-9.4-9.3,0-4.7,4.3-8.8,9.1-8.8Z"/>
      <path class="cls-1" d="M148.1,171.6c-5.3,0-8.9-3.5-8.9-8.8,0-5,3.8-9.1,8.7-9.2,4.9-.1,9.3,4.3,9.3,9.2,0,4.9-4.1,8.8-9.1,8.8Z"/>
      <path class="cls-1" d="M304,156.7c0,5.2-3.7,8.9-8.8,8.9-5,0-9-3.9-9.1-8.9-.1-4.5,4.4-9.1,9.1-9.1,4.7,0,8.9,4.2,8.9,9.1Z"/>
      <path class="cls-1" d="M208.4,152c-4.7,0-8.8-4.2-8.8-8.8,0-4.8,4.3-8.8,9.2-8.8,5.1,0,8.9,4,8.8,9-.1,5.1-4,8.6-9.2,8.5Z"/>
      <path class="cls-1" d="M204.6,264.5c0,5.3-3.6,9-8.7,9.1-4.9,0-8.7-3.7-8.8-8.6,0-4.9,3.9-9.2,8.7-9.2,4.6,0,8.7,4.1,8.8,8.8Z"/>
      <path class="cls-1" d="M189.9,109.2c4.7.1,8.7,4.3,8.7,9,0,4.6-4.6,9.1-9.2,8.9-4.6-.2-8.8-4.5-8.7-9,.1-4.9,4.4-9,9.2-8.8Z"/>
      <path class="cls-1" d="M209.8,85.6c0,5.1-3.9,9-8.8,9-4.6,0-8.7-4.2-8.7-8.9,0-4.7,4-8.9,8.6-9,4.7-.2,9,4.1,9,8.9Z"/>
      <path class="cls-1" d="M253.8,294.1c0,4.8-3.9,8.8-8.6,8.9-4.7,0-8.7-3.9-8.7-8.8,0-4.6,4-8.8,8.6-8.9,4.6,0,8.7,4.1,8.7,8.8Z"/>
      <path class="cls-1" d="M327.6,159.2c4.7,0,8.8,4.3,8.6,8.9-.2,4.7-4,8.4-8.7,8.4-4.7,0-9-4.2-8.8-8.7.2-4.8,4.2-8.7,8.9-8.6Z"/>
      <path class="cls-1" d="M281.3,109.1c-4.7,0-8.5-3.6-8.6-8.3-.1-4.7,3.8-8.9,8.5-9,4.5,0,8.8,4.2,8.8,8.8,0,4.3-4.1,8.4-8.7,8.5Z"/>
      <path class="cls-1" d="M133.7,140.3c-4.6,0-8.2-3.7-8.2-8.3,0-4.3,4.2-8.5,8.3-8.3,4.4.2,8.4,4.3,8.3,8.5-.1,4.5-3.9,8.2-8.4,8.1Z"/>
      <path class="cls-1" d="M312.3,256.1c-4.1,0-8.2-3.9-8.3-8.1,0-4.1,3.8-8.2,8-8.3,4.3-.2,8.5,3.9,8.4,8.2,0,4.2-3.9,8.1-8.1,8.2Z"/>
      <path class="cls-1" d="M272.6,323.7c-4.1,0-7.1-2.9-7.1-6.9,0-4,3.1-7.3,6.8-7.4,4-.1,7.6,3.5,7.6,7.6,0,4-3.1,6.8-7.3,6.8Z"/>
      <path class="cls-1" d="M355.4,142.3c0,4.2-3,7.4-7.2,7.4-3.7,0-7.2-3.4-7.3-7.1,0-4,3.3-7.3,7.3-7.3,4,0,7,3,7.1,7Z"/>
      <path class="cls-1" d="M173.8,74.3c-3.9,0-7.5-3.5-7.4-7.3,0-3.8,3.4-7.1,7.2-7.2,3.9,0,7.5,3.4,7.4,7.3,0,3.8-3.4,7.1-7.2,7.2Z"/>
      <path class="cls-1" d="M105.9,241.6c0,3.7-3.4,7.2-7.1,7.3-3.7,0-7.3-3.4-7.3-7.1,0-4,3-7.2,6.9-7.3,4.2-.1,7.5,3,7.5,7.1Z"/>
      <path class="cls-1" d="M213.2,215.7c-4,0-7.2-3.1-7.1-7,0-3.9,3.3-6.9,7.4-6.8,3.7,0,6.9,3.3,6.9,6.9,0,3.9-3.2,7-7.2,7Z"/>
      <path class="cls-1" d="M233.3,178.1c-3.9,0-7-2.9-7-6.7,0-3.7,3.3-7,6.9-7,3.6,0,6.9,3.3,6.8,7.1,0,3.6-3,6.6-6.7,6.6Z"/>
      <path class="cls-1" d="M242,206.3c-3.7,0-6.8-2.8-6.9-6.3-.1-3.7,3-6.9,6.8-6.9,3.7,0,6.7,2.9,6.8,6.6.1,3.5-3,6.5-6.7,6.6Z"/>
      <path class="cls-1" d="M204,173.7c3.6,0,6.5,3.1,6.5,6.8,0,3.5-3,6.3-6.5,6.2-3.7,0-6.7-3.2-6.5-6.7.1-3.4,3.2-6.4,6.6-6.3Z"/>
      <path class="cls-1" d="M203.1,301c-3.2,0-6.4-3.4-6.4-6.7,0-3.3,3.3-6.2,6.8-6.2,3.3,0,6.1,3.1,6.1,6.4,0,3.4-3.1,6.5-6.5,6.5Z"/>
      <path class="cls-1" d="M118.6,164.1c3.3,0,6.2,3,6.1,6.3,0,3.2-3.2,6.1-6.4,6.1-3.4,0-6-2.9-5.9-6.4,0-3.5,2.7-6.1,6.3-6Z"/>
      <path class="cls-1" d="M317.7,129.8c0,3.6-2.5,6.2-6.1,6.2-3.4,0-6.2-2.8-6.2-6.2,0-3.2,3.1-6.1,6.4-6.1,3.3,0,5.8,2.7,5.9,6.1Z"/>
      <path class="cls-1" d="M163.2,107.8c-3.6,0-6-2.6-5.9-6.3,0-3.4,2.7-6,5.9-6.1,3.4,0,6.6,3.1,6.5,6.5,0,3.4-2.9,5.9-6.5,5.9Z"/>
      <path class="cls-1" d="M135,243.5c3.2,0,6.4,3.3,6.2,6.4-.1,3.1-3.4,6.2-6.5,6.1-3.1-.1-6-3.1-6-6.1,0-3.1,3.2-6.3,6.3-6.3Z"/>
      <path class="cls-1" d="M243.1,91c-3.3,0-5.9-2.5-6-5.9,0-3.6,2.5-6.4,5.9-6.3,3.3,0,6.2,2.9,6.2,6.3,0,3.1-2.9,5.9-6.1,5.9Z"/>
      <path class="cls-1" d="M333.5,209.5c0,3.2-2.7,6-5.9,6.1-3.2,0-6.1-2.6-6.2-5.8-.1-3,2.8-6.1,5.9-6.2,3.1-.1,6.2,2.9,6.2,5.9Z"/>
      <path class="cls-1" d="M283.1,283.8c-3.5,0-6-2.4-6-5.8,0-3.4,2.6-5.8,6-5.8,3,0,5.8,2.7,5.9,5.6.1,3-2.8,6-6,6Z"/>
    </g>
    <g>
      <path class="cls-2" d="M45.8,411.1c0-3.7.6-7.1,1.9-10.4,1.3-3.3,3.1-6.1,5.5-8.6,2.4-2.5,5.3-4.4,8.7-5.9,3.4-1.5,7.2-2.2,11.5-2.2s10.6,1.2,14.6,3.7c4,2.5,7,5.7,9,9.7l-13.1,4c-1.1-1.9-2.6-3.4-4.5-4.4s-3.9-1.6-6.2-1.6-3.7.4-5.4,1.2c-1.7.8-3.1,1.8-4.3,3.2-1.2,1.4-2.2,3-2.9,4.9-.7,1.9-1,4.1-1,6.4s.4,4.5,1.1,6.4c.7,1.9,1.7,3.6,2.9,5,1.2,1.4,2.7,2.5,4.3,3.2,1.7.8,3.4,1.2,5.3,1.2s4.6-.6,6.6-1.8c2-1.2,3.4-2.7,4.2-4.4l13.1,4c-1.8,4-4.8,7.3-8.9,9.8-4.1,2.5-9.1,3.8-14.9,3.8s-8.1-.7-11.5-2.2c-3.4-1.5-6.3-3.4-8.7-5.9s-4.2-5.4-5.5-8.7c-1.3-3.3-2-6.7-2-10.3Z"/>
      <path class="cls-2" d="M107.2,364.3h13.4v55.6c0,4.1,1.8,6.1,5.5,6.1s1.6-.1,2.5-.4c1-.3,1.9-.6,2.7-.9l1.8,10.7c-1.8.9-3.9,1.5-6.3,2-2.4.5-4.6.7-6.5.7-4.2,0-7.4-1.1-9.7-3.4-2.3-2.2-3.5-5.4-3.5-9.5v-60.9Z"/>
      <path class="cls-2" d="M161.4,437.6c-3.5,0-6.6-.7-9.5-2.1s-5.4-3.3-7.4-5.7c-2.1-2.4-3.7-5.2-4.8-8.4-1.1-3.2-1.7-6.6-1.7-10.2s.6-7.3,1.8-10.6c1.2-3.3,2.9-6.1,5-8.6s4.7-4.4,7.6-5.8c3-1.4,6.2-2.1,9.8-2.1s7.7.9,10.8,2.7c3.1,1.8,5.6,4.3,7.5,7.3v-9.2h11.7v49.9c0,3.9-.7,7.3-2.1,10.4-1.4,3.1-3.4,5.7-6,7.8-2.6,2.1-5.7,3.8-9.2,4.9-3.5,1.1-7.4,1.7-11.6,1.7s-10.6-.9-14.5-2.8c-3.9-1.9-7.2-4.6-10-8l7.3-7.1c2,2.5,4.5,4.4,7.5,5.8,3,1.4,6.3,2.1,9.7,2.1s4-.3,6-.9c1.9-.6,3.6-1.4,5-2.6,1.4-1.2,2.6-2.7,3.4-4.6.8-1.9,1.2-4.1,1.2-6.6v-6.6c-1.7,3-4.2,5.3-7.3,6.9-3.1,1.6-6.5,2.4-10.1,2.4ZM166,426.9c1.5,0,2.9-.2,4.2-.7,1.3-.5,2.5-1.1,3.6-1.9,1.1-.8,2.1-1.7,2.9-2.8.9-1.1,1.5-2.2,2-3.4v-12.5c-1.2-3.1-3.1-5.5-5.6-7.4-2.5-1.9-5.2-2.8-8-2.8s-3.9.5-5.6,1.3c-1.7.9-3.1,2.1-4.3,3.6s-2.1,3.2-2.7,5.1c-.6,1.9-1,3.9-1,6s.4,4.1,1.1,6c.7,1.9,1.7,3.5,3.1,4.9,1.3,1.4,2.8,2.5,4.6,3.3,1.8.8,3.7,1.2,5.7,1.2Z"/>
    </g>
    <g>
      <path class="cls-2" d="M254.6,412c0-3.8.7-7.4,2-10.7,1.3-3.4,3.1-6.3,5.5-8.8,2.4-2.5,5.2-4.5,8.5-5.9,3.3-1.4,6.9-2.2,10.9-2.2s9.5,1.2,13.3,3.5c3.8,2.3,6.6,5.4,8.6,9.3l-6.8,2.2c-1.5-2.7-3.6-4.9-6.3-6.4-2.7-1.5-5.7-2.3-9-2.3s-5.3.6-7.7,1.6c-2.4,1.1-4.4,2.6-6.2,4.5-1.8,1.9-3.1,4.1-4.1,6.8-1,2.6-1.5,5.5-1.5,8.6s.5,5.9,1.5,8.6c1,2.7,2.4,5,4.2,7,1.8,2,3.9,3.5,6.2,4.6,2.4,1.1,4.9,1.7,7.6,1.7s3.4-.2,5.1-.7c1.7-.5,3.2-1.2,4.7-2,1.4-.9,2.7-1.8,3.7-2.9,1-1.1,1.8-2.3,2.2-3.5l6.8,2.1c-.8,1.9-1.9,3.7-3.3,5.3-1.4,1.6-3.1,3-5.1,4.2-2,1.2-4.1,2.1-6.5,2.8s-4.8,1-7.4,1c-3.9,0-7.5-.7-10.8-2.2-3.3-1.5-6.2-3.5-8.6-6.1-2.4-2.6-4.3-5.5-5.6-8.9-1.3-3.4-2-7-2-10.8Z"/>
      <path class="cls-2" d="M341.6,391.5c-4.7.1-8.9,1.4-12.4,3.9-3.5,2.5-6,5.9-7.4,10.2v33.4h-7v-53.7h6.6v12.9c1.9-3.8,4.3-6.9,7.3-9.4,3-2.5,6.3-3.8,9.8-3.8h1.8c.5,0,1,0,1.3.1v6.4Z"/>
      <path class="cls-2" d="M374.5,440.1c-3.9,0-7.5-.7-10.8-2.2-3.3-1.5-6.2-3.5-8.6-6.1-2.4-2.6-4.3-5.5-5.6-8.9-1.3-3.4-2-7-2-10.8s.7-7.3,2-10.7,3.2-6.3,5.6-8.8c2.4-2.5,5.2-4.5,8.5-6,3.3-1.5,6.9-2.2,10.8-2.2s7.5.7,10.8,2.2c3.3,1.5,6.1,3.5,8.4,6,2.3,2.5,4.2,5.5,5.5,8.8,1.3,3.3,2,6.8,2,10.5s0,1.1,0,1.6c0,.6,0,.9-.2,1.1h-45.9c.2,2.9.9,5.6,2,8,1.1,2.4,2.6,4.6,4.3,6.3,1.8,1.8,3.8,3.2,6.1,4.2,2.3,1,4.8,1.5,7.4,1.5s3.5-.2,5.3-.7c1.7-.5,3.3-1.1,4.7-2,1.4-.8,2.7-1.8,3.9-3,1.1-1.2,2-2.5,2.6-4l6.1,1.6c-.8,2-2,3.8-3.5,5.4-1.5,1.6-3.3,3-5.3,4.2-2,1.2-4.2,2.1-6.6,2.8-2.4.7-4.9,1-7.4,1ZM394.3,409.3c-.2-2.9-.9-5.5-2-7.9-1.1-2.4-2.6-4.4-4.3-6.1-1.8-1.7-3.8-3.1-6.1-4s-4.8-1.4-7.4-1.4-5.1.5-7.4,1.4c-2.3,1-4.4,2.3-6.1,4-1.8,1.7-3.2,3.8-4.2,6.2-1.1,2.4-1.7,5-1.9,7.8h39.6Z"/>
      <path class="cls-2" d="M433.8,440.1c-3.7,0-7.1-.8-10.3-2.3-3.2-1.5-5.9-3.6-8.2-6.1-2.3-2.5-4.1-5.5-5.4-8.8-1.3-3.3-1.9-6.8-1.9-10.5s.6-7.4,1.9-10.8c1.2-3.4,2.9-6.4,5.1-8.9,2.2-2.5,4.7-4.6,7.7-6,3-1.5,6.3-2.2,9.8-2.2s8.6,1.2,12.1,3.6c3.5,2.4,6.3,5.2,8.4,8.6v-32.8h7v66.2c0,1.9.8,2.9,2.5,2.9v6.2c-1.2.2-2.1.3-2.8.3-1.7,0-3.1-.5-4.2-1.5-1.1-1-1.6-2.2-1.6-3.6v-5.7c-2.2,3.5-5.1,6.3-8.7,8.4-3.6,2.1-7.4,3.1-11.3,3.1ZM435.2,433.9c1.8,0,3.7-.3,5.6-1,2-.7,3.8-1.6,5.5-2.8,1.7-1.2,3.1-2.6,4.4-4.2,1.2-1.6,2-3.4,2.3-5.2v-16.6c-.7-1.9-1.7-3.6-3-5.2s-2.9-3-4.5-4.3-3.5-2.2-5.4-2.9c-1.9-.7-3.8-1-5.6-1-2.9,0-5.5.6-7.9,1.9s-4.4,2.9-6,4.9c-1.6,2-2.9,4.3-3.9,7-.9,2.6-1.4,5.3-1.4,8s.5,5.6,1.5,8.2c1,2.6,2.4,4.9,4.2,6.9,1.8,2,3.9,3.5,6.3,4.7,2.4,1.2,5.1,1.8,7.9,1.8Z"/>
      <rect class="cls-2" x="475.7" y="385.3" width="7" height="53.7"/>
      <path class="cls-2" d="M523.8,436.5c-.4.2-1,.5-1.8.8-.8.3-1.7.7-2.7,1-1,.3-2.2.7-3.5.9-1.3.3-2.7.4-4.1.4s-3-.2-4.3-.6c-1.4-.4-2.6-1-3.6-1.9-1-.9-1.9-1.9-2.5-3.2-.6-1.3-.9-2.8-.9-4.5v-38.5h-7.4v-5.6h7.4v-18.1h7v18.1h12.4v5.6h-12.4v36.5c.1,2,.8,3.5,2.1,4.4,1.2.9,2.7,1.4,4.4,1.4s3.7-.3,5.3-1c1.5-.7,2.5-1.1,2.9-1.4l1.9,5.7Z"/>
      <path class="cls-2" d="M554.1,440.1c-3.9,0-7.5-.7-10.8-2.2-3.3-1.5-6.1-3.5-8.5-6-2.4-2.5-4.2-5.5-5.5-8.9-1.3-3.4-2-6.9-2-10.6s.7-7.4,2-10.7c1.3-3.4,3.2-6.3,5.6-8.9,2.4-2.5,5.2-4.6,8.5-6.1,3.3-1.5,6.8-2.3,10.7-2.3s7.4.8,10.7,2.3c3.3,1.5,6.1,3.5,8.5,6.1,2.4,2.5,4.2,5.5,5.6,8.9,1.3,3.4,2,6.9,2,10.7s-.7,7.3-2,10.6-3.2,6.3-5.6,8.9c-2.4,2.5-5.2,4.6-8.5,6s-6.8,2.2-10.7,2.2ZM534.6,412.4c0,3,.5,5.8,1.5,8.4,1,2.6,2.4,4.8,4.1,6.8s3.8,3.5,6.2,4.6c2.4,1.1,4.9,1.6,7.6,1.6s5.2-.6,7.6-1.7c2.4-1.1,4.4-2.7,6.2-4.6,1.8-2,3.2-4.2,4.2-6.9,1-2.6,1.5-5.4,1.5-8.5s-.5-5.8-1.5-8.4c-1-2.6-2.4-4.9-4.2-6.9-1.8-2-3.9-3.5-6.2-4.6-2.3-1.1-4.8-1.7-7.5-1.7s-5.2.6-7.6,1.7-4.4,2.7-6.2,4.7-3.1,4.3-4.2,7c-1,2.6-1.5,5.5-1.5,8.5Z"/>
      <path class="cls-2" d="M619,391.5c-4.7.1-8.9,1.4-12.4,3.9-3.5,2.5-6,5.9-7.4,10.2v33.4h-7v-53.7h6.6v12.9c1.9-3.8,4.3-6.9,7.3-9.4,3-2.5,6.3-3.8,9.8-3.8h1.8c.5,0,1,0,1.3.1v6.4Z"/>
      <path class="cls-2" d="M652.9,363.8h7v63.1c0,2,.5,3.6,1.6,4.7s2.6,1.7,4.6,1.7,1.6-.1,2.7-.3c1-.2,2-.5,2.9-.8l1.2,5.7c-1.3.6-2.9,1-4.8,1.3-1.9.3-3.5.5-4.9.5-3.2,0-5.8-.9-7.6-2.7-1.9-1.8-2.8-4.4-2.8-7.7v-65.5Z"/>
      <path class="cls-2" d="M694,440.1c-2.8,0-5.3-.4-7.5-1.3-2.3-.9-4.2-2-5.8-3.6-1.6-1.5-2.9-3.3-3.8-5.3-.9-2-1.3-4.1-1.3-6.3s.5-4.7,1.6-6.8c1.1-2,2.6-3.8,4.6-5.2,2-1.4,4.4-2.6,7.2-3.4,2.8-.8,5.9-1.2,9.2-1.2s5.4.2,8.2.7c2.8.5,5.3,1.2,7.5,2.1v-4.8c0-4.7-1.4-8.5-4.1-11.3-2.7-2.8-6.4-4.2-11-4.2s-5.8.6-8.6,1.7c-2.9,1.1-5.8,2.7-8.7,4.7l-2.5-4.6c3.5-2.3,6.9-4.1,10.2-5.3,3.3-1.2,6.7-1.8,10.3-1.8,6.5,0,11.7,1.9,15.6,5.7,3.8,3.8,5.8,9,5.8,15.7v24.2c0,1.9.8,2.9,2.5,2.9v6.2c-.6,0-1.1.1-1.5.2-.5,0-.9,0-1.2,0-1.4,0-2.6-.4-3.8-1.2-1.1-.8-1.8-2.1-1.9-3.7l-.2-4.2c-2.3,3.2-5.4,5.6-9.2,7.4-3.8,1.8-7.7,2.6-11.6,2.6ZM695.8,434.7c3.1,0,6.2-.7,9.2-2,3.1-1.3,5.5-3.2,7.3-5.5.5-.6.9-1.3,1.2-2,.3-.7.5-1.4.5-2v-8.8c-2.3-.9-4.8-1.6-7.3-2.1-2.5-.5-5-.7-7.4-.7-5,0-9.1,1-12.2,3-3.1,2-4.7,4.8-4.7,8.4s.3,2.9.8,4.2c.6,1.4,1.4,2.6,2.5,3.7,1.1,1.1,2.5,2,4.2,2.7,1.6.7,3.6,1,5.9,1Z"/>
      <path class="cls-2" d="M802.4,385.3h6.8l-23,53.7h-5.9l-11.4-27.4-11.4,27.4h-5.9l-23-53.7h6.7l19.6,46.5,10.2-24.5-9.2-21.9h6l7,17.5,6.9-17.5h6l-9.1,21.9,10.2,24.5,19.5-46.5Z"/>
      <path class="cls-2" d="M863.6,439.8c-3.7,0-7.1-.8-10.2-2.3-3.1-1.5-5.7-3.6-7.9-6.1-2.2-2.5-4-5.5-5.2-8.8-1.2-3.3-1.9-6.7-1.9-10.2s.6-7.3,1.8-10.7c1.2-3.4,2.9-6.4,5.1-8.9,2.2-2.5,4.8-4.6,7.9-6.1,3.1-1.5,6.4-2.3,10.2-2.3s8.6,1.2,12,3.5c3.4,2.3,6.3,5.2,8.7,8.7v-11.2h6.3v53.9c0,3.7-.7,7-2.1,9.8-1.4,2.9-3.3,5.2-5.7,7.2-2.4,1.9-5.2,3.4-8.4,4.3-3.2,1-6.6,1.4-10.2,1.4-6.1,0-11.1-1.1-14.8-3.3-3.8-2.2-6.8-5.2-9.2-8.9l4.3-3.4c2.1,3.4,4.9,6,8.5,7.6,3.5,1.6,7.3,2.4,11.2,2.4s5.1-.4,7.5-1.1c2.4-.7,4.4-1.8,6.2-3.2,1.8-1.4,3.1-3.2,4.2-5.4,1-2.2,1.5-4.7,1.5-7.6v-10.6c-2.1,3.4-5,6.2-8.5,8.1-3.5,2-7.3,3-11.2,3ZM865.6,433.9c2.1,0,4.1-.4,6.1-1.1,2-.8,3.8-1.8,5.4-3,1.6-1.3,3-2.7,4.1-4.3,1.1-1.6,1.8-3.2,2.2-4.8v-16.6c-.8-1.9-1.8-3.7-3.1-5.4-1.3-1.6-2.8-3.1-4.5-4.2-1.7-1.2-3.4-2.1-5.3-2.8-1.9-.7-3.8-1-5.7-1-3,0-5.7.6-8,1.9-2.3,1.3-4.3,2.9-6,5-1.7,2.1-2.9,4.4-3.8,7-.9,2.6-1.3,5.3-1.3,7.9s.5,5.6,1.5,8.2c1,2.6,2.4,4.9,4.2,6.9,1.8,2,3.9,3.5,6.3,4.6,2.4,1.1,5.1,1.7,7.9,1.7Z"/>
      <path class="cls-2" d="M932.2,391.5c-4.7.1-8.9,1.4-12.4,3.9-3.5,2.5-6,5.9-7.4,10.2v33.4h-7v-53.7h6.6v12.9c1.9-3.8,4.3-6.9,7.3-9.4,3-2.5,6.3-3.8,9.8-3.8h1.8c.5,0,1,0,1.3.1v6.4Z"/>
      <path class="cls-2" d="M962.3,440.1c-3.9,0-7.5-.7-10.8-2.2-3.3-1.5-6.1-3.5-8.5-6-2.4-2.5-4.2-5.5-5.5-8.9-1.3-3.4-2-6.9-2-10.6s.7-7.4,2-10.7c1.3-3.4,3.2-6.3,5.6-8.9,2.4-2.5,5.2-4.6,8.5-6.1,3.3-1.5,6.8-2.3,10.7-2.3s7.4.8,10.7,2.3c3.3,1.5,6.1,3.5,8.5,6.1,2.4,2.5,4.2,5.5,5.6,8.9,1.3,3.4,2,6.9,2,10.7s-.7,7.3-2,10.6-3.2,6.3-5.6,8.9c-2.4,2.5-5.2,4.6-8.5,6s-6.8,2.2-10.7,2.2ZM942.8,412.4c0,3,.5,5.8,1.5,8.4,1,2.6,2.4,4.8,4.1,6.8s3.8,3.5,6.2,4.6c2.4,1.1,4.9,1.6,7.6,1.6s5.2-.6,7.6-1.7c2.4-1.1,4.4-2.7,6.2-4.6,1.8-2,3.2-4.2,4.2-6.9,1-2.6,1.5-5.4,1.5-8.5s-.5-5.8-1.5-8.4c-1-2.6-2.4-4.9-4.2-6.9-1.8-2-3.9-3.5-6.2-4.6-2.3-1.1-4.8-1.7-7.5-1.7s-5.2.6-7.6,1.7-4.4,2.7-6.2,4.7-3.1,4.3-4.2,7c-1,2.6-1.5,5.5-1.5,8.5Z"/>
      <path class="cls-2" d="M1017,440.1c-5.6,0-9.9-1.9-12.8-5.8-2.9-3.9-4.3-9.7-4.3-17.4v-31.6h7v30.3c0,12.2,4.2,18.2,12.5,18.2s4.1-.3,6.1-1c2-.7,3.8-1.7,5.5-3,1.7-1.3,3.2-2.9,4.5-4.6,1.3-1.8,2.4-3.8,3.2-6.1v-33.8h7v44.6c0,1.9.9,2.9,2.6,2.9v6.2c-1.4.2-2.3.3-2.9.3-1.6,0-2.9-.5-4.1-1.4s-1.7-2.2-1.7-3.6v-7.4c-2.4,4.2-5.6,7.4-9.6,9.7-4,2.3-8.4,3.5-13.1,3.5Z"/>
      <path class="cls-2" d="M1089.2,440.1c-4.5,0-8.6-1.2-12.1-3.5-3.5-2.3-6.3-5.2-8.5-8.7v33.1h-7v-75.7h6.3v10.4c2.2-3.4,5.1-6.1,8.6-8.2s7.3-3.1,11.4-3.1,7.1.8,10.3,2.3c3.1,1.5,5.8,3.6,8.1,6.2,2.3,2.6,4,5.6,5.3,8.9,1.3,3.4,1.9,6.8,1.9,10.4s-.6,7.4-1.8,10.7c-1.2,3.4-2.8,6.3-5,8.9-2.2,2.5-4.7,4.6-7.7,6s-6.3,2.2-9.8,2.2ZM1087.3,433.9c2.9,0,5.5-.6,7.8-1.9,2.3-1.2,4.3-2.9,6-4.9,1.7-2,3-4.3,3.9-6.9s1.3-5.2,1.3-8-.5-5.6-1.5-8.2c-1-2.6-2.4-4.9-4.2-6.9-1.8-2-3.9-3.6-6.3-4.7-2.4-1.2-5.1-1.8-7.9-1.8s-3.6.4-5.6,1.1c-1.9.7-3.7,1.7-5.5,2.9-1.7,1.2-3.2,2.6-4.4,4.2-1.2,1.6-1.9,3.3-2.2,5.1v16.5c.8,1.9,1.9,3.7,3.1,5.4,1.3,1.7,2.7,3.1,4.3,4.3,1.6,1.2,3.4,2.1,5.3,2.8,1.9.7,3.8,1,5.8,1Z"/>
    </g>
  </g>
  <path class="cls-1" d="M479.2,375.4c-3.5,0-6-2.4-6-5.8,0-3.4,2.6-5.8,6-5.8,3,0,5.8,2.7,5.9,5.6.1,3-2.8,6-6,6Z"/>
</svg>