<?xml version="1.0" encoding="UTF-8"?>
<svg id="Layer_1" data-name="Layer 1" xmlns="http://www.w3.org/2000/svg" version="1.1" viewBox="0 0 110 110">
  <defs>
    <style>
      .cls-1 {
        fill: #d3b400;
        stroke-width: 0px;
      }
    </style>
  </defs>
  <path class="cls-1" d="M95.5,33.5h-11.5c-3.6,0-6.5,2.9-6.5,6.5v.3l-10-7.3c-2.5-1.8-5.9-1.8-8.3,0l-1.6-2.6h0c-2-3.2-6.1-4.3-9.4-2.5l-16.5,9.4c-1.1-2.3-3.4-3.7-5.9-3.7h-11.5c-.7,0-1.3.6-1.3,1.3v32.9c0,.3.1.7.4.9.2.2.6.4.9.4h11.5c1.7,0,3.3-.7,4.5-1.8l15.2,13.8c2.5,2.3,6.3,2.4,9,.4l6.1-4.7,2.5,2.3c2.7,2.5,6.9,2.6,9.7.2,1.5-1.3,2.4-3.1,2.6-5.1.2-2-.5-3.9-1.8-5.4l-.3-.4,4.8-3.1c1.1,2.2,3.4,3.6,5.8,3.6h11.5c.3,0,.7-.1.9-.4.2-.2.4-.6.4-.9v-32.9c0-.3-.1-.7-.4-.9-.2-.2-.6-.4-.9-.4h0ZM29.8,62.6c0,2.1-1.8,3.9-3.9,3.9h-10.1v-30.3h10.1,0c2.2,0,3.9,1.8,3.9,3.9v22.5ZM77.6,62.8l-5.8,3.8-13.1-15.1c-.4-.5-1.1-.6-1.7-.3l-2.5,1.5h0c-2.2,1.2-5.1.6-6.5-1.5-1.5-2.1-1.1-5,.8-6.7l11.7-9.4c1.6-1.3,3.8-1.3,5.4-.1l11.5,8.4v19.3h0Z"/>
</svg>