<?xml version="1.0" encoding="UTF-8"?>
<svg id="Layer_1" data-name="Layer 1" xmlns="http://www.w3.org/2000/svg" version="1.1" viewBox="0 0 110 110">
  <defs>
    <style>
      .cls-1 {
        fill: #d3b400;
        stroke-width: 0px;
      }
    </style>
  </defs>
  <path class="cls-1" d="M90,19.2c-.6-.6-1.4-1-2.3-1h0s-65.5,0-65.5,0c-.9,0-1.7.3-2.3.9-.6.6-1,1.4-1,2.3v40.9c0,.9.4,1.7,1,2.3.6.6,1.4,1,2.3,1h65.5c.9,0,1.6-.3,2.2-.9.6-.6,1-1.5,1-2.3V21.5c0-.9-.4-1.7-1-2.3ZM67.5,44.5c-.6.6-1.5,1-2.5,1h-6.4v6.4c0,2-1.6,3.6-3.6,3.6s-1.9-.4-2.5-1-1.1-1.5-1.1-2.5v-6.4h-6.4c-2,0-3.6-1.6-3.6-3.6s.4-1.9,1.1-2.5,1.5-1,2.5-1h6.4v-6.4c0-2,1.6-3.6,3.6-3.6s1.9.4,2.5,1,1.1,1.5,1.1,2.5v6.4h6.4c2,0,3.6,1.6,3.6,3.6s-.4,1.9-1.1,2.5ZM98.1,87.6l-5.9-16.9c-.2-.6-.6-1.2-1.1-1.5-.5-.3-1.1-.5-1.8-.5H20.7c-.7,0-1.3.2-1.8.6-.5.4-.9.9-1.1,1.5l-5.9,16.9c-.2.5-.2,1-.2,1.5,0,.5.3.9.5,1.4.3.4.7.8,1.1,1,.4.2.9.3,1.4.3h80.4c.5,0,1-.1,1.4-.3.4-.2.8-.5,1.1-1,.3-.4.5-.9.6-1.4,0-.5,0-1-.2-1.5ZM61.3,86.3h-12.7c-.8,0-1.5-.7-1.5-1.5s.7-1.5,1.5-1.5h12.7c.8,0,1.5.7,1.5,1.5s-.7,1.5-1.5,1.5Z"/>
</svg>